<?xml version="1.0" encoding="UTF-8" standalone="no"?>
<svg
   xmlns:dc="http://purl.org/dc/elements/1.1/"
   xmlns:cc="http://creativecommons.org/ns#"
   xmlns:rdf="http://www.w3.org/1999/02/22-rdf-syntax-ns#"
   xmlns:svg="http://www.w3.org/2000/svg"
   xmlns="http://www.w3.org/2000/svg"
   xmlns:sodipodi="http://sodipodi.sourceforge.net/DTD/sodipodi-0.dtd"
   xmlns:inkscape="http://www.inkscape.org/namespaces/inkscape"
   viewBox="0 0 81.9 71.52"
   version="1.1"
   id="svg31"
   sodipodi:docname="logo.svg"
   inkscape:version="1.0.2 (1.0.2+r75+1)">
  <metadata
     id="metadata35">
    <rdf:RDF>
      <cc:Work
         rdf:about="">
        <dc:format>image/svg+xml</dc:format>
        <dc:type
           rdf:resource="http://purl.org/dc/dcmitype/StillImage" />
      </cc:Work>
    </rdf:RDF>
  </metadata>
  <sodipodi:namedview
     pagecolor="#ffffff"
     bordercolor="#666666"
     borderopacity="1"
     objecttolerance="10"
     gridtolerance="10"
     guidetolerance="10"
     inkscape:pageopacity="0"
     inkscape:pageshadow="2"
     inkscape:window-width="1366"
     inkscape:window-height="731"
     id="namedview33"
     showgrid="false"
     inkscape:zoom="2.8523534"
     inkscape:cx="56.271581"
     inkscape:cy="37.647805"
     inkscape:window-x="0"
     inkscape:window-y="0"
     inkscape:window-maximized="1"
     inkscape:current-layer="Layer_1-2" />
  <defs
     id="defs9">
    <style
       id="style2">.cls-1{fill:#84aff1;}.cls-2{fill:#3865ab;}.cls-3{fill:url(#linear-gradient);}</style>
    <linearGradient
       id="linear-gradient"
       x1="42.95"
       y1="16.88"
       x2="81.9"
       y2="16.88"
       gradientUnits="userSpaceOnUse">
      <stop
         offset="0"
         stop-color="#f2cc0c"
         id="stop4" />
      <stop
         offset="1"
         stop-color="#ff9830"
         id="stop6" />
    </linearGradient>
  </defs>
  <g
     id="Layer_2"
     data-name="Layer 2">
    <g
       id="Layer_1-2"
       data-name="Layer 1">
      <g
         id="g43"
         transform="translate(0,-37.701882)">
        <path
           class="cls-1"
           d="M 55.46,62.43 A 2,2 0 0 1 54.07,59 l 4.72,-4.54 a 2,2 0 0 1 2.2,-0.39 l 3.65,1.63 3.68,-3.64 a 2,2 0 1 1 2.81,2.84 l -4.64,4.6 a 2,2 0 0 1 -2.22,0.41 l -3.67,-1.65 -3.76,3.61 a 2,2 0 0 1 -1.38,0.56 z"
           id="path11" />
        <path
           class="cls-2"
           d="M 37,37.76 H 2 a 2,2 0 0 0 -2,2 v 29.76 a 2,2 0 0 0 2,2 h 35 a 2,2 0 0 0 2,-2 V 39.76 a 2,2 0 0 0 -2,-2 z M 4,67.52 V 46.6 h 31 v 20.92 z"
           id="path17" />
        <path
           class="cls-2"
           d="M 79.9,37.76 H 45 a 2,2 0 0 0 -2,2 v 29.76 a 2,2 0 0 0 2,2 h 35 a 2,2 0 0 0 2,-2 V 39.76 a 2,2 0 0 0 -2.1,-2 z M 47,67.52 V 46.6 h 31 v 20.92 z"
           id="path19" />
        <rect
           class="cls-1"
           x="10.48"
           y="56.950001"
           width="4"
           height="5.79"
           id="rect21" />
        <rect
           class="cls-1"
           x="17.43"
           y="53.950001"
           width="4"
           height="8.79"
           id="rect23" />
        <rect
           class="cls-1"
           x="24.469999"
           y="50.950001"
           width="4"
           height="11.79"
           id="rect25" />
      </g>
      <text
         xml:space="preserve"
         style="font-size:33.2061px;line-height:1.25;font-family:sans-serif;-inkscape-font-specification:'sans-serif, Normal';stroke-width:0.830152"
         x="-0.4446834"
         y="66.111603"
         id="text47"
         transform="scale(1.0293015,0.97153262)"><tspan
           sodipodi:role="line"
           id="tspan45"
           x="-0.4446834"
           y="66.111603"
           style="stroke-width:0.830152">León</tspan></text>
    </g>
  </g>
</svg>
